<svg xmlns="http://www.w3.org/2000/svg" width="25" height="30" viewBox="0 0 25 30"><g fill="none" fill-rule="evenodd" transform="translate(0 1)"><rect width="25" height="29" x="0" y="0" fill="#fff" rx="9" ry="9"/><g transform="scale(0.9) translate(1, 2)"><path stroke="#201d1e" stroke-linecap="square" stroke-width="1.77" d="m14.58 5.24.7-3.89"/><path stroke="#201d1e" stroke-linecap="square" stroke-linejoin="round" stroke-width="1.77" d="m17.8 3.86-2.44-2.98-3.32 1.94"/><path stroke="#201d1e" stroke-linecap="square" stroke-width="1.77" d="m11.66 21.84.68-3.89"/><path stroke="#201d1e" stroke-linecap="square" stroke-linejoin="round" stroke-width="1.77" d="m14.88 20.45-2.46-2.97-3.31 1.95"/><path stroke="#201d1e" stroke-linecap="square" stroke-width="1.77" d="m13.07 13.82.68-3.89"/><path stroke="#201d1e" stroke-linecap="square" stroke-linejoin="round" stroke-width="1.77" d="m16.29 12.43-2.45-2.96-3.31 1.94"/><circle cx="10.77" cy="26.85" r="1.63" fill="#201d1e" fill-rule="nonzero"/><g stroke="#201d1e" stroke-linecap="square"><path stroke-width="1.68" d="m6.15 21.5-2.99 2.08"/><path stroke-linejoin="round" stroke-width="1.68" d="m6.33 24.87-3.53-1.04.26-3.67"/><path stroke-width="1.68" d="m17.01 23.45 2.08 3"/><path stroke-linejoin="round" stroke-width="1.68" d="m15.67 26.55 3.67.25 1.04-3.51"/><path stroke-width="1.72" d="m20.42 17.36 3.66.66"/><path stroke-linejoin="round" stroke-width="1.72" d="m21.68 20.57 2.84-2.47-1.79-3.29"/><path stroke-width="1.72" d="m19.35 10.1 3.26-1.8"/><path stroke-linejoin="round" stroke-width="1.72" d="m19.53 6.65 3.47 1.44-.65 3.69"/><path stroke-width="1.72" d="m4.97 14.64-3.67-.64"/><path stroke-linejoin="round" stroke-width="1.72" d="m2.68 17.22-1.82-3.29 2.81-2.48"/><path stroke-width="1.72" d="m8.45 8.17-2.45-2.8"/><path stroke-linejoin="round" stroke-width="1.72" d="m9.46 4.88-3.75.16-.66 3.69"/></g></g></g></svg>